<svg class="icon" viewBox="0 0 1024 1024" version="1.1" xmlns="http://www.w3.org/2000/svg"
     width="72" height="72">
    <path d="M725.617 255.57l-576.791-0.003c-10.98 0-20.522 4.066-28.645 12.185C112.06 275.875 108 285.417 108 296.389v453.006c0 11.404 4.06 21.062 12.182 28.958 8.123 7.903 17.667 11.863 28.645 11.863H396.4v41.48H272.614c-11.416 0-21.077 4.046-28.971 12.174-7.902 8.125-11.856 17.872-11.856 29.285v40.836h410.882v-40.836c0-11.413-3.956-21.16-11.863-29.285-7.892-8.128-17.55-12.174-28.953-12.174H478.051v-41.48h247.566c10.988 0 20.531-3.96 28.652-11.863 8.129-7.896 12.185-17.559 12.185-28.958V296.394c0-10.978-4.056-20.519-12.185-28.642-8.121-8.122-17.664-12.182-28.652-12.182z m-41.465 452.994H190.306V337.871h493.847v370.693h-0.001z m112.526-116.476h-58.565v66.868h91.732v-33.182c0-9.268-3.219-17.188-9.638-23.795-6.42-6.602-14.262-9.891-23.529-9.891zM920.512 133.9c-6.59-6.599-14.35-9.898-23.271-9.898L428.607 124c-8.921 0-16.672 3.301-23.271 9.9-6.6 6.599-9.897 14.351-9.897 23.264v98.401h66.873V190.87h401.234v301.18H738.119v66.334H897.24c8.922 0 16.682-3.215 23.276-9.633 6.602-6.413 9.896-14.263 9.896-23.53V157.169c0-8.918-3.294-16.67-9.9-23.269z"
          fill="#d81e06"/>
    <path d="M472.959 526.869L540 593.906l-29.841 29.844-67.037-67.041-67.035 67.041-29.837-29.844 67.037-67.037-67.037-67.032L376.087 430l67.038 67.034L510.159 430 540 459.837l-67.041 67.032zM818.752 226.716H810v-6.609c0.126 0 0.241 0.011 0.346 0.031 0.105 0.021 0.221 0.031 0.348 0.031 0.082 0 0.177 0.011 0.283 0.032 0.104 0.021 0.22 0.031 0.346 0.031 2.519 0 4.732-0.556 6.642-1.667s3.054-2.634 3.432-4.565h6.736v41.047h-9.38v-28.331z"
          fill="#d81e06"/>
</svg>