<svg class="icon" viewBox="0 0 1024 1024" version="1.1" xmlns="http://www.w3.org/2000/svg"
     width="72" height="72">
    <path d="M285.013333 904.533333H100.693333c-17.066667 0-32.426667-15.36-32.426666-32.426666V134.826667C68.266667 117.76 83.626667 102.4 100.693333 102.4H597.333333c18.773333 0 34.133333 15.36 34.133334 34.133333v187.733334c0 10.24-6.826667 17.066667-17.066667 17.066666s-17.066667-6.826667-17.066667-17.066666V136.533333H102.4v733.866667h182.613333c10.24 0 17.066667 6.826667 17.066667 17.066667s-6.826667 17.066667-17.066667 17.066666zM742.4 614.4c-1.706667 0-5.12 0-6.826667-1.706667-3.413333-3.413333-3.413333-8.533333 0-11.946666l102.4-102.4c3.413333-3.413333 8.533333-3.413333 11.946667 0s3.413333 8.533333 0 11.946666l-102.4 102.4c0 1.706667-3.413333 1.706667-5.12 1.706667z"
          fill="#11cdef"/>
    <path d="M921.6 803.84H273.066667c-18.773333 0-34.133333-15.36-34.133334-34.133333V341.333333c0-18.773333 15.36-34.133333 34.133334-34.133333h648.533333c18.773333 0 34.133333 15.36 34.133333 34.133333v428.373334c0 18.773333-15.36 34.133333-34.133333 34.133333zM273.066667 341.333333v428.373334h648.533333V341.333333H273.066667zM733.866667 955.733333H460.8c-18.773333 0-34.133333-15.36-34.133333-34.133333v-34.133333c0-18.773333 15.36-34.133333 34.133333-34.133334h273.066667c18.773333 0 34.133333 15.36 34.133333 34.133334v34.133333c0 18.773333-15.36 34.133333-34.133333 34.133333z m-273.066667-68.266666v34.133333h273.066667v-34.133333H460.8z"
          fill="#11cdef"/>
    <path d="M597.333333 887.466667c-10.24 0-17.066667-6.826667-17.066666-17.066667v-85.333333c0-10.24 6.826667-17.066667 17.066666-17.066667s17.066667 6.826667 17.066667 17.066667v85.333333c0 10.24-6.826667 17.066667-17.066667 17.066667zM691.2 512h-256c-5.12 0-8.533333-3.413333-8.533333-8.533333s3.413333-8.533333 8.533333-8.533334h256c5.12 0 8.533333 3.413333 8.533333 8.533334s-3.413333 8.533333-8.533333 8.533333zM520.533333 273.066667h-341.333333c-5.12 0-8.533333-3.413333-8.533333-8.533334s3.413333-8.533333 8.533333-8.533333h341.333333c5.12 0 8.533333 3.413333 8.533334 8.533333s-3.413333 8.533333-8.533334 8.533334zM384 512h-34.133333c-5.12 0-8.533333-3.413333-8.533334-8.533333s3.413333-8.533333 8.533334-8.533334h34.133333c5.12 0 8.533333 3.413333 8.533333 8.533334s-3.413333 8.533333-8.533333 8.533333zM247.466667 494.933333h-68.266667c-5.12 0-8.533333-3.413333-8.533333-8.533333s3.413333-8.533333 8.533333-8.533333h68.266667c5.12 0 8.533333 3.413333 8.533333 8.533333s-3.413333 8.533333-8.533333 8.533333zM247.466667 563.2h-68.266667c-5.12 0-8.533333-3.413333-8.533333-8.533333s3.413333-8.533333 8.533333-8.533334h68.266667c5.12 0 8.533333 3.413333 8.533333 8.533334s-3.413333 8.533333-8.533333 8.533333zM691.2 614.4h-256c-5.12 0-8.533333-3.413333-8.533333-8.533333s3.413333-8.533333 8.533333-8.533334h256c5.12 0 8.533333 3.413333 8.533333 8.533334s-3.413333 8.533333-8.533333 8.533333zM384 614.4h-34.133333c-5.12 0-8.533333-3.413333-8.533334-8.533333s3.413333-8.533333 8.533334-8.533334h34.133333c5.12 0 8.533333 3.413333 8.533333 8.533334s-3.413333 8.533333-8.533333 8.533333z"
          fill="#11cdef"/>
</svg>