<svg class="icon" viewBox="0 0 1024 1024" version="1.1" xmlns="http://www.w3.org/2000/svg"
     width="32" height="32">
    <path d="M672 0h320a32 32 0 0 1 32 32v320a32 32 0 0 1-32 32h-320a32 32 0 0 1-32-32v-320a32 32 0 0 1 32-32z m64 64a32 32 0 0 0-32 32v192a32 32 0 0 0 32 32h192a32 32 0 0 0 32-32v-192a32 32 0 0 0-32-32h-192zM32 640h320a32 32 0 0 1 32 32v320a32 32 0 0 1-32 32h-320a32 32 0 0 1-32-32v-320a32 32 0 0 1 32-32z m64 64a32 32 0 0 0-32 32v192a32 32 0 0 0 32 32h192a32 32 0 0 0 32-32v-192a32 32 0 0 0-32-32h-192z"
          fill="#1296db"/>
    <path d="M128 128l448 0 0 64-448 0 0-64Z" fill="#1296db"/>
    <path d="M448 768l448 0 0 64-448 0 0-64Z" fill="#1296db"/>
    <path d="M192 160v256a32 32 0 0 1-64 0v-256a32 32 0 0 1 64 0zM896 544v256a32 32 0 1 1-64 0v-256a32 32 0 1 1 64 0z"
          fill="#1296db"/>
    <path d="M159.552 511.808a31.872 31.872 0 0 0 22.464-9.728l88.96-92.096a32 32 0 1 0-46.08-44.48l-66.688 69.12-69.056-66.752a32 32 0 1 0-44.48 46.08l92.16 88.96c6.272 6.08 14.528 9.088 22.72 8.96zM863.168 512.512a31.872 31.872 0 0 0-22.464 9.792l-88.96 92.032a32 32 0 1 0 46.08 44.48l66.688-69.056 69.056 66.688a32 32 0 1 0 44.48-46.08l-92.096-88.896a31.872 31.872 0 0 0-22.784-8.96z"
          fill="#1296db"/>
</svg>