<svg class="icon" viewBox="0 0 1024 1024" version="1.1" xmlns="http://www.w3.org/2000/svg"
     width="72" height="72">
    <path d="M853.333333 810.666667V298.666667H170.666667v512h682.666666m0-682.666667a85.333333 85.333333 0 0 1 85.333334 85.333333v597.333334a85.333333 85.333333 0 0 1-85.333334 85.333333H170.666667a85.333333 85.333333 0 0 1-85.333334-85.333333V213.333333a85.333333 85.333333 0 0 1 85.333334-85.333333h682.666666m-298.666666 597.333333v-85.333333h213.333333v85.333333h-213.333333m-145.92-170.666666L237.653333 384H358.4l140.8 140.8c16.64 16.64 16.64 43.946667 0 60.586667L359.253333 725.333333H238.506667z"
          fill="#d81e06"></path>
</svg>