<svg class="icon" viewBox="0 0 1024 1024" version="1.1" xmlns="http://www.w3.org/2000/svg"
     width="64" height="64">
    <path d="M514.519241 666.600566l76.052546-76.052546 60.842037 60.842037-76.052547 76.052546 76.052547 76.052546-88.696282 88.696282a304.733046 304.733046 0 0 1-398.32521 28.282041L60.865803 1024 0.023766 963.157963l103.526529-103.526528a304.733046 304.733046 0 0 1 28.519705-398.32521l88.696281-88.696282 76.052546 76.052546 76.052547-76.052546 60.842036 60.842037-76.052546 76.052546 157.143574 157.143573z m405.787866-502.089402a304.733046 304.733046 0 0 1-28.519705 398.32521l-88.696282 88.696282-430.504944-430.93274 88.696282-88.743814a304.733046 304.733046 0 0 1 398.32521-28.282041L963.086664 0l60.842037 60.842037-103.621594 103.669127z m-426.226988 56.183818l309.201132 309.201133 28.09191-27.901778a218.65107 218.65107 0 1 0-309.201133-309.201133z"
          fill="#ff8d72"/>
</svg>