<svg class="icon" viewBox="0 0 1024 1024" version="1.1" xmlns="http://www.w3.org/2000/svg"
     width="32" height="32">
    <path d="M510.08853333 193.89973333l-108.58986666 37.09226667L331.41333333 189.80266667l180.064-64.64853334L692.95253333 191.46666667l-68.74453333 39.5264-114.09706667-37.09226667z m1.36533334 214.85866667l108.61226666-37.13706667 70.10986667 41.27786667-180.08746667 64.55786667-181.408-66.21866667 68.69973334-39.61706667 114.0736 37.13706667z m-165.43253334-55.36426667l-73.728 35.72586667L35.86133333 301.12426667l240.54933334-88.928 70.13333333 41.4368-130.57173333 47.4912 130.02453333 52.26986666z m463.62133334-52.26986666l-130.57066667-47.4912 70.0864-41.43786667 240.59413333 88.92906667L753.2544 389.12l-73.7056-35.72586667 130.09386667-52.26986666zM511.45386667 615.1968L35.15733333 428.4192 34.13333333 333.75573333l477.32053334 186.5952 477.4112-184.5248v95.392l-477.4112 183.97866667z m1.09226666 35.90826667L989.86666667 466.5344v95.4592L512.54613333 745.904 36.22613333 559.17226667l-1.0688-94.66346667 477.3888 186.59626667zM35.13493333 596.33066667l477.4112 186.59626666L989.86666667 598.4032v95.4368l-477.32053334 183.97866667L36.22613333 691.04l-1.0688-94.68586667z"
          fill="#00C1DE"/>
</svg>