<svg  class="icon" viewBox="0 0 1024 1024" version="1.1"
     xmlns="http://www.w3.org/2000/svg" width="72" height="72">
    <path d="M518.8608 692.5312A290.1504 290.1504 0 1 1 808.96 402.432a290.4576 290.4576 0 0 1-290.0992 290.0992z m0-527.36A237.3632 237.3632 0 1 0 756.224 402.432a237.568 237.568 0 0 0-237.3632-237.3632z"
          fill="#03b7c9"></path>
    <path d="M518.8608 692.5312c-85.6576 0-131.8912-149.504-131.8912-290.0992s46.08-290.1504 131.8912-290.1504 131.84 149.504 131.84 290.1504-46.1824 290.0992-131.84 290.0992z m0-527.36c-32.256 0-79.104 92.16-79.104 237.3632S486.4 640 518.8608 640s79.104-92.16 79.104-237.312-46.848-237.6192-79.104-237.6192z"
          fill="#03b7c9"></path>
    <path d="M255.1296 376.0128h527.4624v52.736H255.1296zM492.4928 666.1632h52.736v158.2592h-52.736z"
          fill="#03b7c9"></path>
    <path d="M413.3376 800.2048h210.9952v52.736H413.3376zM940.8512 903.5264h-263.7312v-184.6272h263.7312z m-210.9952-52.7872h158.208v-79.104h-158.208zM756.224 903.5264h105.472v52.736h-105.472zM360.6016 903.5264H96.8704v-184.6272h263.7312z m-210.9952-52.7872h158.2592v-79.104H149.6064zM175.9744 903.5264h105.472v52.736h-105.472z"
          fill="#03b7c9"></path>
</svg>