<svg class="icon" viewBox="0 0 1024 1024" version="1.1"
     xmlns="http://www.w3.org/2000/svg" width="72" height="72">
    <path d="M330.0352 491.008h79.104v52.736H330.0352zM567.3984 491.008h79.104v52.736h-79.104zM646.5536 543.744V491.008a79.2064 79.2064 0 0 0 79.104-79.1552H778.24a132.0448 132.0448 0 0 1-131.6864 131.8912zM330.0352 543.744a132.0448 132.0448 0 0 1-131.84-131.8912H250.88A79.2064 79.2064 0 0 0 330.0352 491.008zM666.3168 335.616a79.5136 79.5136 0 0 0-19.7632-2.8672v-52.736a128 128 0 0 1 32.9216 4.5568z"
          fill="#00d4c7"/>
    <path d="M778.24 411.8528h-52.736a78.9504 78.9504 0 0 0-59.392-76.2368l13.2608-51.2A131.584 131.584 0 0 1 778.24 411.8528zM310.272 335.616L296.96 284.5696a128.6656 128.6656 0 0 1 32.9728-4.5568V332.8a79.5136 79.5136 0 0 0-19.6608 2.816zM250.88 411.8528H198.1952A131.584 131.584 0 0 1 296.96 284.5696l13.2096 51.2A78.9504 78.9504 0 0 0 250.88 411.8528z"
          fill="#00d4c7"/>
    <path d="M699.2896 310.0672h-52.736v-3.6864a79.2576 79.2576 0 0 0-79.1552-79.1552 77.7216 77.7216 0 0 0-18.2784 2.4064l-17.3056 4.1472-10.24-14.5408a105.3184 105.3184 0 0 0-191.488 60.7744v30.0544H277.2992v-30.0544a158.0032 158.0032 0 0 1 276.48-104.704 111.2576 111.2576 0 0 1 13.5168-0.8192 132.0448 132.0448 0 0 1 131.8912 131.8912zM461.9264 385.4848h52.736v316.4672h-52.736z"
          fill="#00d4c7"/>
    <path d="M382.8224 675.6352h210.9952v52.736H382.8224zM910.2848 807.4752h-263.7312V596.48h263.7312z m-210.9952-52.736h158.208V649.216h-158.208zM725.6576 807.4752h105.472v52.736h-105.472zM330.0352 807.4752H66.56V596.48h263.4752z m-210.9952-52.736h158.2592V649.216H119.04zM145.4592 807.4752h105.472v52.736h-105.472z"
          fill="#00d4c7"/>
</svg>