<svg class="icon" viewBox="0 0 1024 1024" xmlns="http://www.w3.org/2000/svg" width="32" height="32">
    <path d="M585.404 777.628c-60.388 31.468-93.648 31.086-141.369 8.315C396.58 763.175 0 597.507 0 597.507v120.121c0 10.367 14.459 21.236 41.324 34.154 54.24 25.975 355.256 147.37 402.584 170.271 47.463 22.773 80.977 22.905 141.359-8.313 60.387-31.469 342.972-147.499 397.601-176.16 27.758-14.445 40.039-25.836 40.039-35.943V583.049h-0.128c-0.127-0.127-377.26 162.979-437.382 194.579h0.007z m0-168.738c-60.388 31.469-93.648 31.084-141.369 8.315C396.58 594.308 0 428.512 0 428.512v120.133C0 559 14.459 569.876 41.324 582.794c54.24 26.096 355.256 147.507 402.584 170.398 47.463 22.771 80.977 22.905 141.359-8.313 60.387-31.469 342.972-147.502 397.601-176.155 27.758-14.455 40.039-25.841 40.039-35.951V414.185h-0.128c-0.127 0-377.26 163.109-437.382 194.705h0.007z m437.625-352.82c0.512-10.365-13.302-19.577-40.55-29.554C929.261 206.944 648.208 95.13 594.353 75.434c-53.987-19.705-75.864-18.807-139.062 3.708-63.193 22.519-362.549 140.085-415.768 160.934C12.661 250.567-0.388 260.422 0.38 270.907v-0.128 118.207s396.322 166.947 444.037 189.719c47.456 22.769 80.98 22.897 141.364-8.313 60.252-31.732 437.632-197.521 437.632-197.521l-0.385-116.796v-0.005z m-132.393 3.196L735.2 320.54l-140.079-55.39 155.176-61.41 140.339 55.526zM603.56 317.472l-71.767 105.033-165.289-68.57 237.061-36.462h-0.005zM479.086 157.819l-22.9-42.347 71.519 27.891 67.29-22.131-18.295 43.62 68.692 25.843-88.655 9.083-19.956 47.974-31.975-53.352-102.347-9.083 76.629-27.499h-0.002z m-176.539 59.485c69.977 0 126.773 21.873 126.773 49.124 0 26.993-56.797 49.122-126.773 49.122s-126.772-21.874-126.772-49.122c0.124-26.864 56.795-49.124 126.772-49.124z"></path>
</svg>